<svg width="100" height="100" viewBox="0 0 100 100" fill="none" xmlns="http://www.w3.org/2000/svg">
<path d="M92.9998 34.24C93.9998 35.24 92.9998 35.64 92.9998 37.07C92.9998 38.5 93.1598 38.5 93.1598 39.93C93.1598 41.36 92.8598 41.36 92.8598 42.79C92.8598 44.22 92.8598 44.22 92.8598 45.65C92.8598 47.08 92.8598 47.08 92.8598 48.51C92.8598 49.94 93.1598 49.94 93.1598 51.37C93.1598 52.8 93.0798 52.8 93.0798 54.23C93.0798 55.66 93.0798 55.66 93.0798 57.09C93.0798 58.52 93.0798 58.52 93.0798 59.95C93.0798 61.38 92.8698 61.38 92.8698 62.81C92.8698 64.24 93.0798 64.24 93.0798 65.68C93.0798 67.12 92.9998 67.11 92.9998 68.54C92.9998 69.97 93.2198 69.97 93.2198 71.4C93.2198 72.83 93.1598 72.83 93.1598 74.26C93.1598 75.69 92.9098 75.69 92.9098 77.12C92.9098 78.55 93.1398 78.56 93.1398 79.99C93.1398 81.42 94.1398 81.83 93.0798 82.85C92.0198 83.87 91.6598 82.77 90.2198 82.77C88.7798 82.77 88.7898 82.77 87.3598 82.77C85.9298 82.77 85.9198 82.84 84.4898 82.84C83.0598 82.84 82.9998 83 81.5798 83C80.1598 83 80.1398 83 78.7098 83C77.2798 83 77.2798 82.9 75.8398 82.9C74.3998 82.9 74.4098 82.66 72.9698 82.66C71.5298 82.66 71.5398 83 70.0998 83C68.6598 83 68.6698 82.82 67.2298 82.82C65.7898 82.82 65.7998 82.89 64.3598 82.89C62.9198 82.89 62.9298 83 61.4998 83C60.0698 83 60.0598 82.87 58.6298 82.87C57.1998 82.87 57.1898 82.87 55.7598 82.87C54.3298 82.87 54.3298 82.76 52.8898 82.76C51.4498 82.76 51.4598 82.94 50.0298 82.94C48.5998 82.94 48.5898 83.1 47.1598 83.1C45.7298 83.1 45.7198 82.73 44.2898 82.73C42.8598 82.73 42.8498 83.03 41.4198 83.03C39.9898 83.03 39.9798 82.86 38.5498 82.86H35.6798C34.2398 82.86 34.2398 82.98 32.8098 82.98C31.3798 82.98 31.3698 83.09 29.9398 83.09C28.5098 83.09 28.4998 82.83 27.0598 82.83C25.6198 82.83 25.6298 82.76 24.1898 82.76C22.7498 82.76 22.7598 82.92 21.3198 82.92C19.8798 82.92 19.8898 82.92 18.4498 82.92C17.0098 82.92 17.0098 82.84 15.5798 82.84C14.1498 82.84 14.1398 83 12.6998 83C11.2598 83 11.2598 83 9.81984 83C8.37984 83 7.88984 84 6.86984 83C5.84984 82 6.86984 81.49 6.86984 80.07C6.86984 78.65 6.74984 78.64 6.74984 77.21C6.74984 75.78 6.83984 75.78 6.83984 74.35C6.83984 72.92 7.11984 72.92 7.11984 71.49C7.11984 70.06 6.90984 70 6.90984 68.57C6.90984 67.14 6.99984 67.14 6.99984 65.71V62.85C6.99984 61.42 6.99984 61.42 6.99984 60C6.99984 58.58 7.05984 58.57 7.05984 57.14C7.05984 55.71 6.99984 55.7 6.99984 54.27C6.99984 52.84 6.99984 52.83 6.99984 51.4C6.99984 49.97 6.99984 50 6.99984 48.54C6.99984 47.08 7.11984 47.11 7.11984 45.68C7.11984 44.25 6.90984 44.25 6.90984 42.82C6.90984 41.39 6.90984 41.39 6.90984 39.95C6.90984 38.51 7.07984 38.52 7.07984 37.09C7.07984 35.66 5.91984 35.19 6.92984 34.18C7.93984 33.17 8.39984 34.06 9.83984 34.06C11.2798 34.06 11.2698 34.41 12.6998 34.41C14.1298 34.41 14.1398 34.33 15.5698 34.33C16.9998 34.33 17.0098 34.15 18.4398 34.15C19.8698 34.15 19.8798 34.41 21.3098 34.41C22.7398 34.41 22.7398 34.23 24.1798 34.23H29.8998C31.3298 34.23 31.3298 34.31 32.7698 34.31C34.2098 34.31 34.1998 34.05 35.6398 34.05C37.0798 34.05 37.0698 34.25 38.4998 34.25H41.3698C42.8098 34.25 42.8098 34.34 44.2398 34.34C45.6698 34.34 45.6698 34.34 47.1098 34.34C48.5498 34.34 48.5398 34.34 49.9698 34.34C51.3998 34.34 51.4098 34.16 52.8398 34.16C54.2698 34.16 54.2798 34.36 55.7098 34.36C57.1398 34.36 57.1498 34.23 58.5798 34.23C60.0098 34.23 60.0198 34.23 61.4498 34.23C62.8798 34.23 62.8898 34 64.3198 34C65.7498 34 65.7598 34.35 67.1898 34.35C68.6198 34.35 68.6298 34.35 70.0598 34.35C71.4898 34.35 71.4998 34.27 72.9398 34.27C74.3798 34.27 74.3698 34.14 75.8098 34.14C77.2498 34.14 77.2398 34.31 78.6798 34.31C80.1198 34.31 80.1098 34.17 81.5498 34.17C82.9898 34.17 82.9898 34.35 84.4198 34.35H87.2998C88.2587 34.4073 89.2205 34.3128 90.1498 34.07C91.6398 33.77 91.9998 33.22 92.9998 34.24Z" fill="white"/>
<path d="M92.9998 34.24C93.9998 35.24 92.9998 35.64 92.9998 37.07C92.9998 38.5 93.1598 38.5 93.1598 39.93C93.1598 41.36 92.8598 41.36 92.8598 42.79C92.8598 44.22 92.8598 44.22 92.8598 45.65C92.8598 47.08 92.8598 47.08 92.8598 48.51C92.8598 49.94 93.1598 49.94 93.1598 51.37C93.1598 52.8 93.0798 52.8 93.0798 54.23C93.0798 55.66 93.0798 55.66 93.0798 57.09C93.0798 58.52 93.0798 58.52 93.0798 59.95C93.0798 61.38 92.8698 61.38 92.8698 62.81C92.8698 64.24 93.0798 64.24 93.0798 65.68C93.0798 67.12 92.9998 67.11 92.9998 68.54C92.9998 69.97 93.2198 69.97 93.2198 71.4C93.2198 72.83 93.1598 72.83 93.1598 74.26C93.1598 75.69 92.9098 75.69 92.9098 77.12C92.9098 78.55 93.1398 78.56 93.1398 79.99C93.1398 81.42 94.1398 81.83 93.0798 82.85C92.0198 83.87 91.6598 82.77 90.2198 82.77C88.7798 82.77 88.7898 82.77 87.3598 82.77C85.9298 82.77 85.9198 82.84 84.4898 82.84C83.0598 82.84 82.9998 83 81.5798 83C80.1598 83 80.1398 83 78.7098 83C77.2798 83 77.2798 82.9 75.8398 82.9C74.3998 82.9 74.4098 82.66 72.9698 82.66C71.5298 82.66 71.5398 83 70.0998 83C68.6598 83 68.6698 82.82 67.2298 82.82C65.7898 82.82 65.7998 82.89 64.3598 82.89C62.9198 82.89 62.9298 83 61.4998 83C60.0698 83 60.0598 82.87 58.6298 82.87C57.1998 82.87 57.1898 82.87 55.7598 82.87C54.3298 82.87 54.3298 82.76 52.8898 82.76C51.4498 82.76 51.4598 82.94 50.0298 82.94C48.5998 82.94 48.5898 83.1 47.1598 83.1C45.7298 83.1 45.7198 82.73 44.2898 82.73C42.8598 82.73 42.8498 83.03 41.4198 83.03C39.9898 83.03 39.9798 82.86 38.5498 82.86H35.6798C34.2398 82.86 34.2398 82.98 32.8098 82.98C31.3798 82.98 31.3698 83.09 29.9398 83.09C28.5098 83.09 28.4998 82.83 27.0598 82.83C25.6198 82.83 25.6298 82.76 24.1898 82.76C22.7498 82.76 22.7598 82.92 21.3198 82.92C19.8798 82.92 19.8898 82.92 18.4498 82.92C17.0098 82.92 17.0098 82.84 15.5798 82.84C14.1498 82.84 14.1398 83 12.6998 83C11.2598 83 11.2598 83 9.81984 83C8.37984 83 7.88984 84 6.86984 83C5.84984 82 6.86984 81.49 6.86984 80.07C6.86984 78.65 6.74984 78.64 6.74984 77.21C6.74984 75.78 6.83984 75.78 6.83984 74.35C6.83984 72.92 7.11984 72.92 7.11984 71.49C7.11984 70.06 6.90984 70 6.90984 68.57C6.90984 67.14 6.99984 67.14 6.99984 65.71V62.85C6.99984 61.42 6.99984 61.42 6.99984 60C6.99984 58.58 7.05984 58.57 7.05984 57.14C7.05984 55.71 6.99984 55.7 6.99984 54.27C6.99984 52.84 6.99984 52.83 6.99984 51.4C6.99984 49.97 6.99984 50 6.99984 48.54C6.99984 47.08 7.11984 47.11 7.11984 45.68C7.11984 44.25 6.90984 44.25 6.90984 42.82C6.90984 41.39 6.90984 41.39 6.90984 39.95C6.90984 38.51 7.07984 38.52 7.07984 37.09C7.07984 35.66 5.91984 35.19 6.92984 34.18C7.93984 33.17 8.39984 34.06 9.83984 34.06C11.2798 34.06 11.2698 34.41 12.6998 34.41C14.1298 34.41 14.1398 34.33 15.5698 34.33C16.9998 34.33 17.0098 34.15 18.4398 34.15C19.8698 34.15 19.8798 34.41 21.3098 34.41C22.7398 34.41 22.7398 34.23 24.1798 34.23H29.8998C31.3298 34.23 31.3298 34.31 32.7698 34.31C34.2098 34.31 34.1998 34.05 35.6398 34.05C37.0798 34.05 37.0698 34.25 38.4998 34.25H41.3698C42.8098 34.25 42.8098 34.34 44.2398 34.34C45.6698 34.34 45.6698 34.34 47.1098 34.34C48.5498 34.34 48.5398 34.34 49.9698 34.34C51.3998 34.34 51.4098 34.16 52.8398 34.16C54.2698 34.16 54.2798 34.36 55.7098 34.36C57.1398 34.36 57.1498 34.23 58.5798 34.23C60.0098 34.23 60.0198 34.23 61.4498 34.23C62.8798 34.23 62.8898 34 64.3198 34C65.7498 34 65.7598 34.35 67.1898 34.35C68.6198 34.35 68.6298 34.35 70.0598 34.35C71.4898 34.35 71.4998 34.27 72.9398 34.27C74.3798 34.27 74.3698 34.14 75.8098 34.14C77.2498 34.14 77.2398 34.31 78.6798 34.31C80.1198 34.31 80.1098 34.17 81.5498 34.17C82.9898 34.17 82.9898 34.35 84.4198 34.35H87.2998C88.2587 34.4073 89.2205 34.3128 90.1498 34.07C91.6398 33.77 91.9998 33.22 92.9998 34.24Z" stroke="#212120" stroke-width="2.5" stroke-linecap="round" stroke-linejoin="round"/>
<path d="M66.55 82.31C66.55 80.82 66.92 80.82 66.92 79.31C66.92 77.8 66.58 77.82 66.58 76.31C66.58 74.8 66.83 74.82 66.83 73.31C66.83 71.8 66.65 71.82 66.65 70.31C66.65 68.8 66.89 68.82 66.89 67.31C66.89 65.8 66.74 65.81 66.74 64.31C66.74 62.81 66.57 62.82 66.57 61.31C66.57 59.8 66.83 59.81 66.83 58.31C66.83 56.81 66.65 56.81 66.65 55.31C66.65 53.81 65.74 53.45 66.81 52.4C67.88 51.35 68.26 52.16 69.81 52.16C71.36 52.16 71.35 52.32 72.88 52.32C74.41 52.32 74.42 52.22 75.95 52.22C77.48 52.22 77.49 52.16 79.03 52.16H82.1C83.64 52.16 84.21 51.1 85.31 52.16C86.41 53.22 85.25 53.79 85.25 55.28C85.25 56.77 85.37 56.77 85.37 58.28C85.37 59.79 85.03 59.78 85.03 61.28C85.03 62.78 84.98 62.77 84.98 64.28C84.98 65.79 84.98 65.78 84.98 67.28C84.98 68.78 85.23 68.77 85.23 70.28C85.23 71.79 85.23 71.77 85.23 73.28C85.23 74.79 85.23 74.77 85.23 76.28C85.23 77.79 85.1 77.78 85.1 79.28C85.1 80.78 85.03 80.78 85.03 82.28" stroke="#212120" stroke-width="2.5" stroke-linecap="round" stroke-linejoin="round"/>
<path d="M17.5498 48C18.6098 47 19.0898 48.05 20.5498 48.05C22.0098 48.05 22.0098 47.89 23.4698 47.89C24.9298 47.89 24.9398 48.19 26.3998 48.19C27.8598 48.19 27.8598 48 29.3198 48C30.7798 48 30.7898 48.07 32.2498 48.07C33.7098 48.07 33.7098 48.25 35.1798 48.25C36.6498 48.25 36.6398 48.07 38.0998 48.07C39.5598 48.07 39.5698 48.28 41.0298 48.28C42.4898 48.28 42.4898 48.28 43.9598 48.28C45.4298 48.28 45.4198 47.99 46.8798 47.99C48.3398 47.99 48.3498 48.32 49.8098 48.32C51.2698 48.32 51.2798 48 52.7398 48C54.1998 48 54.5398 47.17 55.5998 48.19C56.6598 49.21 55.5998 49.51 55.5998 50.9C55.5998 52.29 55.6598 52.3 55.6598 53.7C55.6598 55.1 55.5198 55.1 55.5198 56.5C55.5198 57.9 55.7798 57.9 55.7798 59.29C55.7798 60.68 55.7798 60.69 55.7798 62.09C55.7798 63.49 55.8498 63.49 55.8498 64.89C55.8498 66.29 55.5998 66.29 55.5998 67.69C55.5998 69.09 55.5198 69.09 55.5198 70.49C55.5198 71.89 56.6398 72.28 55.6298 73.25C54.6198 74.22 54.2098 73.33 52.7398 73.33C51.2698 73.33 51.2798 73.11 49.8198 73.11C48.3598 73.11 48.3598 73.42 46.8898 73.42C45.4198 73.42 45.4298 73.36 43.9698 73.36C42.5098 73.36 42.5098 73.49 41.0398 73.49C39.5698 73.49 39.5798 73.19 38.1098 73.19C36.6398 73.19 36.6498 73.19 35.1898 73.19C33.7298 73.19 33.7298 73.37 32.2598 73.37C30.7898 73.37 30.7998 73.04 29.3398 73.04H26.4198C24.9498 73.04 24.9498 73.25 23.4898 73.25C22.0298 73.25 22.0198 73.36 20.5598 73.36C19.0998 73.36 18.6698 74.26 17.5598 73.25C16.4498 72.24 17.4898 71.83 17.4898 70.44C17.4898 69.05 17.5498 69.04 17.5498 67.64C17.5498 66.24 17.5498 66.24 17.5498 64.84C17.5498 63.44 17.3698 63.44 17.3698 62.05C17.3698 60.66 17.5198 60.65 17.5198 59.25C17.5198 57.85 17.3798 57.85 17.3798 56.45C17.3798 55.05 17.6698 55.05 17.6698 53.65C17.7588 52.7187 17.6912 51.779 17.4698 50.87C17.1898 49.44 16.5398 49 17.5498 48Z" fill="#212120"/>
<path d="M29.0498 59.21C30.0998 58.16 30.2198 58.28 31.2598 57.21C32.2998 56.14 32.4698 56.32 33.5198 55.27" stroke="white" stroke-width="2.5" stroke-linecap="round" stroke-linejoin="round"/>
<path d="M39.7798 65.67C40.7798 64.67 40.9498 64.74 41.9998 63.67C43.0498 62.6 43.1298 62.67 44.1798 61.67" stroke="white" stroke-width="2.5" stroke-linecap="round" stroke-linejoin="round"/>
<path d="M30.0698 67.24C31.1598 66.15 31.2998 66.29 32.3898 65.24C33.4798 64.19 33.2898 63.96 34.3898 62.86C35.4898 61.76 35.5698 61.86 36.6598 60.76C37.7498 59.66 37.6598 59.61 38.7898 58.52C39.9198 57.43 39.9898 57.52 41.0798 56.43C42.1698 55.34 42.1798 55.35 43.2798 54.25" stroke="white" stroke-width="2.5" stroke-linecap="round" stroke-linejoin="round"/>
<path d="M80.51 66.36C80.9984 66.3409 81.4747 66.5149 81.8359 66.8442C82.1971 67.1736 82.4141 67.6319 82.44 68.12C82.4092 68.6012 82.1886 69.0506 81.8267 69.3693C81.4649 69.688 80.9913 69.8501 80.51 69.82C80.022 69.8484 79.5418 69.6875 79.1693 69.3709C78.7968 69.0543 78.5606 68.6063 78.51 68.12C78.5557 67.6268 78.7883 67.1697 79.1601 66.8424C79.532 66.5152 80.015 66.3426 80.51 66.36V66.36Z" fill="#212120"/>
<path d="M98.0898 16.77C97.1498 15.83 96.7598 16.9 95.4298 16.9C94.0998 16.9 94.0898 16.8 92.7598 16.8C91.4298 16.8 91.4198 16.93 90.0798 16.93C88.7398 16.93 88.7498 16.81 87.4098 16.81C86.0698 16.81 86.0798 16.81 84.7398 16.81C83.3998 16.81 82.9198 15.76 81.9698 16.71C81.0198 17.66 81.9698 18.13 81.9698 19.47C81.9698 20.81 82.1298 20.8 82.1298 22.14C82.1298 23.48 81.9998 23.44 81.9998 24.78C81.9998 26.12 81.9998 26.11 81.9998 27.45C81.9998 28.79 81.8698 28.79 81.8698 30.13C81.9537 31.1761 82.2425 32.1954 82.7198 33.13C83.1462 34.0723 83.7624 34.9166 84.5298 35.61C85.2143 36.4111 86.0547 37.0643 86.9998 37.53C87.9664 37.9641 89.0105 38.1987 90.0698 38.22V38C92.1567 37.9758 94.1558 37.1569 95.6598 35.71C96.4388 35.0037 97.0708 34.1508 97.5198 33.2C97.9287 32.2243 98.1427 31.1779 98.1498 30.12C98.1498 28.78 98.0198 28.78 98.0198 27.45C98.0198 26.12 97.9998 26.12 97.9998 24.79C97.9998 23.46 97.9998 23.45 97.9998 22.12C97.9576 21.2309 98.052 20.3405 98.2798 19.48C98.5798 18.09 98.9998 17.72 98.0898 16.77Z" fill="#F68720"/>
<path d="M98.0898 16.77C97.1498 15.83 96.7598 16.9 95.4298 16.9C94.0998 16.9 94.0898 16.8 92.7598 16.8C91.4298 16.8 91.4198 16.93 90.0798 16.93C88.7398 16.93 88.7498 16.81 87.4098 16.81C86.0698 16.81 86.0798 16.81 84.7398 16.81C83.3998 16.81 82.9198 15.76 81.9698 16.71C81.0198 17.66 81.9698 18.13 81.9698 19.47C81.9698 20.81 82.1298 20.8 82.1298 22.14C82.1298 23.48 81.9998 23.44 81.9998 24.78C81.9998 26.12 81.9998 26.11 81.9998 27.45C81.9998 28.79 81.8698 28.79 81.8698 30.13C81.9537 31.1761 82.2425 32.1954 82.7198 33.13C83.1462 34.0723 83.7624 34.9166 84.5298 35.61C85.2143 36.4111 86.0547 37.0643 86.9998 37.53C87.9664 37.9641 89.0105 38.1987 90.0698 38.22V38C92.1567 37.9758 94.1558 37.1569 95.6598 35.71C96.4388 35.0037 97.0708 34.1508 97.5198 33.2C97.9287 32.2243 98.1427 31.1779 98.1498 30.12C98.1498 28.78 98.0198 28.78 98.0198 27.45C98.0198 26.12 97.9998 26.12 97.9998 24.79C97.9998 23.46 97.9998 23.45 97.9998 22.12C97.9576 21.2309 98.052 20.3405 98.2798 19.48C98.5798 18.09 98.9998 17.72 98.0898 16.77Z" stroke="#212120" stroke-width="2.5" stroke-linecap="round" stroke-linejoin="round"/>
<path d="M34.1098 16.63C33.1698 15.68 32.6398 16.94 31.2998 16.94C29.9598 16.94 29.9698 16.85 28.6298 16.85C27.2898 16.85 27.2998 16.65 25.9598 16.65C24.6198 16.65 24.6298 16.93 23.2898 16.93H20.6098C19.2798 16.93 18.8498 15.8 17.9098 16.74C16.9698 17.68 17.9998 18.1 17.9998 19.44C17.9998 20.78 17.9998 20.77 17.9998 22.11C17.9998 23.45 18.0598 23.44 18.0598 24.78C18.0598 26.12 17.9998 26.11 17.9998 27.45C17.9998 28.79 17.8898 28.79 17.8898 30.13C17.8704 31.1925 18.0572 32.2486 18.4398 33.24C18.92 34.1815 19.5789 35.0204 20.3798 35.71C21.1301 36.4371 22.0219 37.0021 22.9998 37.37C23.9269 37.8809 24.947 38.2006 25.9998 38.31V38.18C27.0322 38.1573 28.0506 37.9366 28.9998 37.53C29.9932 37.1605 30.9064 36.6038 31.6898 35.89C32.4535 35.1388 33.0586 34.2419 33.4692 33.2525C33.8797 32.263 34.0874 31.2012 34.0798 30.13C34.0798 28.79 33.8498 28.79 33.8498 27.46C33.8498 26.13 34.0798 26.12 34.0798 24.79C34.0798 23.46 34.0798 23.45 34.0798 22.12C33.9509 21.2455 33.978 20.3551 34.1598 19.49C34.5098 18 35.0498 17.57 34.1098 16.63Z" fill="#F68720"/>
<path d="M34.1098 16.63C33.1698 15.68 32.6398 16.94 31.2998 16.94C29.9598 16.94 29.9698 16.85 28.6298 16.85C27.2898 16.85 27.2998 16.65 25.9598 16.65C24.6198 16.65 24.6298 16.93 23.2898 16.93H20.6098C19.2798 16.93 18.8498 15.8 17.9098 16.74C16.9698 17.68 17.9998 18.1 17.9998 19.44C17.9998 20.78 17.9998 20.77 17.9998 22.11C17.9998 23.45 18.0598 23.44 18.0598 24.78C18.0598 26.12 17.9998 26.11 17.9998 27.45C17.9998 28.79 17.8898 28.79 17.8898 30.13C17.8704 31.1925 18.0572 32.2486 18.4398 33.24C18.92 34.1815 19.5789 35.0204 20.3798 35.71C21.1301 36.4371 22.0219 37.0021 22.9998 37.37C23.9269 37.8809 24.947 38.2006 25.9998 38.31V38.18C27.0322 38.1573 28.0506 37.9366 28.9998 37.53C29.9932 37.1605 30.9064 36.6038 31.6898 35.89C32.4535 35.1388 33.0586 34.2419 33.4692 33.2525C33.8797 32.263 34.0874 31.2012 34.0798 30.13C34.0798 28.79 33.8498 28.79 33.8498 27.46C33.8498 26.13 34.0798 26.12 34.0798 24.79C34.0798 23.46 34.0798 23.45 34.0798 22.12C33.9509 21.2455 33.978 20.3551 34.1598 19.49C34.5098 18 35.0498 17.57 34.1098 16.63Z" stroke="#212120" stroke-width="2.5" stroke-linecap="round" stroke-linejoin="round"/>
<path d="M66.1199 16.68C65.1199 15.74 64.6999 16.74 63.3599 16.74C62.0199 16.74 62.0299 16.74 60.6899 16.74C59.3499 16.74 59.3599 16.96 58.0199 16.96C56.6799 16.96 56.6899 16.96 55.3499 16.96C54.0099 16.96 54.0099 16.76 52.6799 16.76C51.3499 16.76 50.8799 15.76 49.9299 16.7C48.9799 17.64 50.1099 18.1 50.1099 19.44C50.1099 20.78 49.8599 20.77 49.8599 22.11C49.8599 23.45 50.0699 23.44 50.0699 24.78C50.0699 26.12 50.1599 26.11 50.1599 27.45C50.1599 28.79 50.0699 28.79 50.0699 30.13C50.057 31.1743 50.2507 32.2109 50.6399 33.18C51.0796 34.1226 51.7016 34.9689 52.4699 35.67C53.1458 36.4729 53.9754 37.1325 54.9099 37.61C55.8993 38.0026 56.9555 38.1996 58.0199 38.19V38.32C59.0673 38.2228 60.086 37.9239 61.0199 37.44C62.0139 37.0935 62.931 36.5569 63.7199 35.86C64.4444 35.0886 65.0086 34.181 65.3799 33.19C65.8039 32.2241 66.0349 31.1846 66.0599 30.13C66.0599 28.79 66.0599 28.79 66.0599 27.46C66.0599 26.13 65.9499 26.12 65.9499 24.79C65.9499 23.46 66.1899 23.45 66.1899 22.12C66.1899 20.79 65.6399 20.72 65.9399 19.42C66.2399 18.12 67.0599 17.63 66.1199 16.68Z" fill="#F68720"/>
<path d="M66.1199 16.68C65.1199 15.74 64.6999 16.74 63.3599 16.74C62.0199 16.74 62.0299 16.74 60.6899 16.74C59.3499 16.74 59.3599 16.96 58.0199 16.96C56.6799 16.96 56.6899 16.96 55.3499 16.96C54.0099 16.96 54.0099 16.76 52.6799 16.76C51.3499 16.76 50.8799 15.76 49.9299 16.7C48.9799 17.64 50.1099 18.1 50.1099 19.44C50.1099 20.78 49.8599 20.77 49.8599 22.11C49.8599 23.45 50.0699 23.44 50.0699 24.78C50.0699 26.12 50.1599 26.11 50.1599 27.45C50.1599 28.79 50.0699 28.79 50.0699 30.13C50.057 31.1743 50.2507 32.2109 50.6399 33.18C51.0796 34.1226 51.7016 34.9689 52.4699 35.67C53.1458 36.4729 53.9754 37.1325 54.9099 37.61C55.8993 38.0026 56.9555 38.1996 58.0199 38.19V38.32C59.0673 38.2228 60.086 37.9239 61.0199 37.44C62.0139 37.0935 62.931 36.5569 63.7199 35.86C64.4444 35.0886 65.0086 34.181 65.3799 33.19C65.8039 32.2241 66.0349 31.1846 66.0599 30.13C66.0599 28.79 66.0599 28.79 66.0599 27.46C66.0599 26.13 65.9499 26.12 65.9499 24.79C65.9499 23.46 66.1899 23.45 66.1899 22.12C66.1899 20.79 65.6399 20.72 65.9399 19.42C66.2399 18.12 67.0599 17.63 66.1199 16.68Z" stroke="#212120" stroke-width="2.5" stroke-linecap="round" stroke-linejoin="round"/>
<path d="M17.9999 16.73C17.0599 15.79 16.6299 16.73 15.2999 16.73C13.9699 16.73 13.9699 16.73 12.6299 16.73C11.2899 16.73 11.2999 16.64 9.95991 16.64C8.61991 16.64 8.61991 16.73 7.28991 16.73C5.95991 16.73 5.94991 16.78 4.60991 16.78C3.26991 16.78 2.74991 15.68 1.79991 16.62C0.849908 17.56 1.79991 18.09 1.79991 19.43C1.79991 20.77 1.79991 20.76 1.79991 22.1C1.79991 23.44 1.94991 23.43 1.94991 24.77C1.94991 26.11 1.88991 26.1 1.88991 27.44C1.88991 28.78 1.88991 28.78 1.88991 30.12C1.83744 31.1826 1.99022 32.2453 2.33991 33.25C2.77706 34.2322 3.39824 35.1215 4.16991 35.87C4.96705 36.5612 5.89081 37.091 6.88991 37.43C7.84495 37.8045 8.86421 37.988 9.88991 37.97V37.97C10.9441 38.0367 12.0011 37.894 12.9999 37.55C13.9876 37.1673 14.8936 36.6006 15.6699 35.88C16.3491 35.0699 16.8652 34.1361 17.1899 33.13C17.5725 32.177 17.7595 31.1568 17.7399 30.13C17.7399 28.79 17.8699 28.79 17.8699 27.46C17.8699 26.13 18.1199 26.12 18.1199 24.79C18.1199 23.46 17.7599 23.45 17.7599 22.12C17.7105 21.2267 17.8085 20.3314 18.0499 19.47C18.3599 18.05 18.9199 17.68 17.9999 16.73Z" fill="#FDCE9D"/>
<path d="M17.9999 16.73C17.0599 15.79 16.6299 16.73 15.2999 16.73C13.9699 16.73 13.9699 16.73 12.6299 16.73C11.2899 16.73 11.2999 16.64 9.95991 16.64C8.61991 16.64 8.61991 16.73 7.28991 16.73C5.95991 16.73 5.94991 16.78 4.60991 16.78C3.26991 16.78 2.74991 15.68 1.79991 16.62C0.849908 17.56 1.79991 18.09 1.79991 19.43C1.79991 20.77 1.79991 20.76 1.79991 22.1C1.79991 23.44 1.94991 23.43 1.94991 24.77C1.94991 26.11 1.88991 26.1 1.88991 27.44C1.88991 28.78 1.88991 28.78 1.88991 30.12C1.83744 31.1826 1.99022 32.2453 2.33991 33.25C2.77706 34.2322 3.39824 35.1215 4.16991 35.87C4.96705 36.5612 5.89081 37.091 6.88991 37.43C7.84495 37.8045 8.86421 37.988 9.88991 37.97V37.97C10.9441 38.0367 12.0011 37.894 12.9999 37.55C13.9876 37.1673 14.8936 36.6006 15.6699 35.88C16.3491 35.0699 16.8652 34.1361 17.1899 33.13C17.5725 32.177 17.7595 31.1568 17.7399 30.13C17.7399 28.79 17.8699 28.79 17.8699 27.46C17.8699 26.13 18.1199 26.12 18.1199 24.79C18.1199 23.46 17.7599 23.45 17.7599 22.12C17.7105 21.2267 17.8085 20.3314 18.0499 19.47C18.3599 18.05 18.9199 17.68 17.9999 16.73Z" stroke="#212120" stroke-width="2.5" stroke-miterlimit="10"/>
<path d="M82.14 16.69C81.2 15.75 80.73 16.88 79.39 16.88C78.05 16.88 78.06 16.72 76.72 16.72C75.38 16.72 75.39 16.93 74.05 16.93C72.71 16.93 72.72 16.85 71.38 16.85C70.04 16.85 70.04 16.72 68.71 16.72C67.38 16.72 67.1 15.95 66.16 16.89C65.22 17.83 66.16 18.1 66.16 19.44C66.16 20.78 65.94 20.77 65.94 22.11C65.94 23.45 66.07 23.44 66.07 24.78C66.07 26.12 66.07 26.11 66.07 27.45C66.07 28.79 66.31 28.79 66.31 30.13C66.2344 31.1716 66.3635 32.218 66.69 33.21C67.121 34.1729 67.7359 35.0425 68.5 35.77C69.2138 36.5206 70.0617 37.1311 71 37.57C71.983 37.9594 73.0327 38.153 74.09 38.14C75.1188 38.1398 76.1377 37.9394 77.09 37.55C78.0866 37.1858 79.0035 36.6323 79.79 35.92C80.4795 35.1217 81.0091 34.1983 81.35 33.2C81.7595 32.2521 81.977 31.2325 81.99 30.2C81.99 28.86 82.16 28.86 82.16 27.53C82.16 26.2 81.92 26.19 81.92 24.86C81.92 23.53 82.21 23.52 82.21 22.19C82.21 20.86 81.57 20.77 81.86 19.47C82.15 18.17 83.08 17.64 82.14 16.69Z" fill="#FDCE9D"/>
<path d="M82.14 16.69C81.2 15.75 80.73 16.88 79.39 16.88C78.05 16.88 78.06 16.72 76.72 16.72C75.38 16.72 75.39 16.93 74.05 16.93C72.71 16.93 72.72 16.85 71.38 16.85C70.04 16.85 70.04 16.72 68.71 16.72C67.38 16.72 67.1 15.95 66.16 16.89C65.22 17.83 66.16 18.1 66.16 19.44C66.16 20.78 65.94 20.77 65.94 22.11C65.94 23.45 66.07 23.44 66.07 24.78C66.07 26.12 66.07 26.11 66.07 27.45C66.07 28.79 66.31 28.79 66.31 30.13C66.2344 31.1716 66.3635 32.218 66.69 33.21C67.121 34.1729 67.7359 35.0425 68.5 35.77C69.2138 36.5206 70.0617 37.1311 71 37.57C71.983 37.9594 73.0327 38.153 74.09 38.14C75.1188 38.1398 76.1377 37.9394 77.09 37.55C78.0866 37.1858 79.0035 36.6323 79.79 35.92C80.4795 35.1217 81.0091 34.1983 81.35 33.2C81.7595 32.2521 81.977 31.2325 81.99 30.2C81.99 28.86 82.16 28.86 82.16 27.53C82.16 26.2 81.92 26.19 81.92 24.86C81.92 23.53 82.21 23.52 82.21 22.19C82.21 20.86 81.57 20.77 81.86 19.47C82.15 18.17 83.08 17.64 82.14 16.69Z" stroke="#212120" stroke-width="2.5" stroke-miterlimit="10"/>
<path d="M50.1 16.67C49.16 15.67 48.67 16.89 47.33 16.89C45.99 16.89 46 16.6 44.66 16.6C43.32 16.6 43.33 16.68 41.99 16.68C40.65 16.68 40.66 16.57 39.32 16.57C37.98 16.57 37.98 16.73 36.64 16.73C35.3 16.73 35 15.91 34.05 16.85C33.1 17.79 33.85 18.1 33.85 19.44C33.85 20.78 33.85 20.77 33.85 22.11C33.85 23.45 33.79 23.44 33.79 24.78C33.79 26.12 34.11 26.11 34.11 27.45C34.11 28.79 34.11 28.79 34.11 30.13C34.0648 31.1775 34.2245 32.2237 34.58 33.21C35.0301 34.1572 35.6621 35.0066 36.44 35.71C37.1221 36.5304 37.9577 37.2097 38.9 37.71C39.8948 38.0927 40.9543 38.2794 42.02 38.26V38C43.0597 38.0368 44.0964 37.8669 45.07 37.5C46.0731 37.1538 47.0001 36.6173 47.8 35.92C48.5124 35.1298 49.0658 34.2097 49.43 33.21C49.8744 32.2482 50.1258 31.2086 50.17 30.15C50.17 28.81 50.05 28.81 50.05 27.48C50.05 26.15 49.93 26.14 49.93 24.81C49.93 23.48 49.93 23.47 49.93 22.14C49.93 20.81 49.61 20.73 49.93 19.43C50.25 18.13 51 17.61 50.1 16.67Z" fill="#FDCE9D"/>
<path d="M50.1 16.67C49.16 15.67 48.67 16.89 47.33 16.89C45.99 16.89 46 16.6 44.66 16.6C43.32 16.6 43.33 16.68 41.99 16.68C40.65 16.68 40.66 16.57 39.32 16.57C37.98 16.57 37.98 16.73 36.64 16.73C35.3 16.73 35 15.91 34.05 16.85C33.1 17.79 33.85 18.1 33.85 19.44C33.85 20.78 33.85 20.77 33.85 22.11C33.85 23.45 33.79 23.44 33.79 24.78C33.79 26.12 34.11 26.11 34.11 27.45C34.11 28.79 34.11 28.79 34.11 30.13C34.0648 31.1775 34.2245 32.2237 34.58 33.21C35.0301 34.1572 35.6621 35.0066 36.44 35.71C37.1221 36.5304 37.9577 37.2097 38.9 37.71C39.8948 38.0927 40.9543 38.2794 42.02 38.26V38C43.0597 38.0368 44.0964 37.8669 45.07 37.5C46.0731 37.1538 47.0001 36.6173 47.8 35.92C48.5124 35.1298 49.0658 34.2097 49.43 33.21C49.8744 32.2482 50.1258 31.2086 50.17 30.15C50.17 28.81 50.05 28.81 50.05 27.48C50.05 26.15 49.93 26.14 49.93 24.81C49.93 23.48 49.93 23.47 49.93 22.14C49.93 20.81 49.61 20.73 49.93 19.43C50.25 18.13 51 17.61 50.1 16.67Z" stroke="#212120" stroke-width="2.5" stroke-miterlimit="10"/>
</svg>
