<svg width="34" height="34" viewBox="0 0 34 34" fill="none" xmlns="http://www.w3.org/2000/svg">
<path d="M17.55 30.87c-.35.17-.75.17-1.1 0a27.45 27.45 0 01-5.15-3.55C8.02 24.42 6 21.14 6 17.5V8.9c0-.5.32-.96.8-1.14l9.77-3.68c.28-.1.58-.1.86 0l9.78 3.68c.47.18.79.64.79 1.15v8.59c0 3.64-2.01 6.93-5.3 9.82a27.45 27.45 0 01-5.15 3.55z" fill="#A1AAFA" stroke="#202020" stroke-width="2"/><path d="M23.45 11.55a1.77 1.77 0 00-2.62.05l-5.08 5.66-1.58-1.76c-.7-.78-1.89-.8-2.62-.05a2 2 0 00-.05 2.7l2.92 3.25c.72.8 1.94.8 2.66 0l6.42-7.15a2 2 0 00-.05-2.7z" fill="#fff" stroke="#202020"/>
</svg>
