<svg width="34" height="34" fill="none" xmlns="http://www.w3.org/2000/svg"><path d="m25.1 25.475.258-.117.117-.258 1.025-2.27 1.024 2.282.117.26.259.117 2.255 1.018-2.267 1.017-.26.117-.117.259-1.018 2.255-1.017-2.267-.117-.26-.259-.117-2.255-1.018 2.255-1.018Zm2.424-19.363.117.26.259.117 2.255 1.018L27.9 8.525l-.258.116-.117.259-1.025 2.27-1.024-2.282-.117-.26-.259-.117-2.255-1.018 2.267-1.017.26-.117.117-.259 1.018-2.255 1.017 2.267Z" fill="#FAE395" stroke="#212121" stroke-width="1.5"/><path d="M15.886 13.617c.1.22.277.397.497.497l5.315 2.415.004.001a.52.52 0 0 1-.01.944l-5.31 2.412a.999.999 0 0 0-.496.497l-2.414 5.315-.002.004a.52.52 0 0 1-.943-.007l-.001-.002-2.412-5.31a1 1 0 0 0-.497-.497l-5.315-2.415-.004-.001a.52.52 0 0 1 .007-.943l5.312-2.413a1 1 0 0 0 .497-.497l2.414-5.315.002-.004a.52.52 0 0 1 .94 0l.002.004 2.414 5.315Z" fill="#FAE395" stroke="#212121" stroke-width="2" stroke-linejoin="round"/></svg>